<?xml version="1.0" encoding="UTF-8"?>
<svg id="Camada_1" data-name="Camada 1" xmlns="http://www.w3.org/2000/svg" viewBox="0 0 692.34 730.08">
  <defs>
    <style>
      .cls-1, .cls-2 {
        fill: #fff;
      }

      .cls-2 {
        stroke: #fff;
        stroke-width: 2px;
      }

      .cls-3 {
        fill: #1d1d1b;
      }
    </style>
  </defs>
  <path class="cls-3" d="M140.33,35.4v-.02c0-.11-.09-.2-.2-.21-11.71-.51-23.58-.91-35.63-1.18-3.73-.08-6.53-.59-8.42-1.52-3.98-1.97-6.48-4.87-7.49-8.69-2.67-10.03,4.04-18.11,14.04-18.43,40.73-1.33,83.22-2.77,127.48-4.32,9.36-.33,16.2,2.08,20.55,10.86,4.93,9.94-1.16,22.66-11.69,25.66-2.25,.64-4.89,.9-7.92,.77-17.57-.76-35.01-1.4-52.34-1.91-.51,0-.81,.23-.89,.74l-14.95,102.9c-1.34-.26-2.73-.52-3.86,.36-.96,.75-1.94,1.42-2.94,2.03-1.3,.79-2.73,.88-4.29,.27-2.09-.81-4.23-1.45-6.4-1.91-3.41-.71-6.44,0-9.1,2.16-1.84,1.48-3.52,3.11-5.04,4.89-2.2,2.56-4.56,5.19-7.07,7.88-.21,.22-.41,.22-.6,0-.18-.2-.24-.61-.17-1.22l16.93-119.1h0Z"/>
  <path class="cls-1" d="M123.57,155.72c.19,.23,.39,.23,.6,0,2.51-2.69,4.87-5.32,7.07-7.88,1.52-1.78,3.2-3.41,5.04-4.89,2.66-2.15,5.69-2.87,9.1-2.16,2.17,.46,4.31,1.1,6.4,1.91,1.56,.61,2.99,.52,4.29-.27,1-.61,1.98-1.28,2.94-2.03,1.13-.88,2.52-.62,3.86-.36l-.72,6.16,.02-.51c0-.17-.03-.34-.12-.48-.25-.42-.8-.57-1.23-.32-3.51,2.03-7.71,3.34-11.57,1.77-1.61-.66-3.25-1.17-4.91-1.53-1.73-.37-3.17-.09-4.32,.84-.82,.67-1.65,1.42-2.49,2.26-4.55,4.55-9.52,9.32-14.92,14.3l.79-8.04c-.07,.61,0,1.02,.17,1.22h0Z"/>
  <path class="cls-1" d="M137.53,148.24c.84-.84,1.67-1.59,2.49-2.26,1.15-.93,2.59-1.21,4.32-.84,1.66,.36,3.3,.87,4.91,1.53,3.86,1.57,8.06,.26,11.57-1.77,.15-.09,.32-.13,.49-.12,.5,.02,.88,.43,.86,.92l-.02,.51-2.97,20.55c-13.92,6.85-17.09,16.57-9.5,29.16,.53,.89,1.24,1.64,2.13,2.27,.82,.57,1.69,1.17,2.62,1.8l-.77,7.27c-.12,.22-.18,.48-.19,.78,0,.09-.03,.17-.09,.24-.13,.14-.36,.15-.51,0-1.29-1.2-2.54-2.27-3.75-3.2-.16-.13-.27-.29-.33-.49-.04-.14-.11-.26-.21-.36-4.17-4.11-8.15-8.23-11.94-12.36-1.07-1.17-2.43-2-4.08-2.5-3.45-1.05-6.45-1.39-8.98-1.01-.88,.13-1.79,.2-2.74,.21-.31,0-.59,.08-.84,.25-1.13,.74-1.57,.71-1.31-.08l3.92-26.21c5.4-4.98,10.37-9.75,14.92-14.3h0Z"/>
  <path class="cls-3" d="M154.43,199.99c-.93-.63-1.8-1.23-2.62-1.8-.89-.63-1.6-1.38-2.13-2.27-7.59-12.59-4.42-22.31,9.5-29.16l-4.75,33.23h0Z"/>
  <g>
    <g>
      <path class="cls-2" d="M162.15,146.21l.72-6.16" vector-effect="non-scaling-stroke"/>
      <path class="cls-2" d="M159.18,166.76l2.97-20.55" vector-effect="non-scaling-stroke"/>
      <path class="cls-2" d="M154.43,199.99l4.75-33.23" vector-effect="non-scaling-stroke"/>
      <path class="cls-2" d="M153.66,207.26l.77-7.27" vector-effect="non-scaling-stroke"/>
      <path class="cls-2" d="M128.5,388.46c-.37-.29-.53-.7-.46-1.23,2.04-15.66,4.52-31,6.56-46.43,2.01-15.15,4.46-30.41,6.45-45.48,1.46-11,3.02-21.99,4.68-32.96,.94-6.27,1.87-12.87,2.79-19.78,1.57-11.79,3.28-23.57,5.14-35.32" vector-effect="non-scaling-stroke"/>
      <path class="cls-2" d="M211.94,619.56c2.07,11.73,6.1,22.11,12.1,31.15,14.04,21.18,33.39,33.81,58.05,37.88,4.93,.82,11.49,1.22,19.67,1.21,76.43-.09,153.72-.09,231.88,0,.91,0,1.34,.45,1.29,1.36-.27,4.9-.24,9.8,.09,14.7,.51,7.5,3.67,13.16,9.5,16.97,1.66,1.09,3.4,1.72,5.21,1.88,13.97,1.27,29.11,2.68,45.44,4.24,1.21,.11,2.52,.15,3.93,.12,3.63-.08,6.8-3.16,8.12-6.23,.72-1.67,1.08-3.68,1.07-6.05-.01-25.51-.02-51.76-.03-78.74,0-1.97-.6-3.9-1.78-5.8-2.17-3.49-5.32-5.07-9.47-4.73-17.69,1.46-33.25,2.9-46.68,4.31-8.89,.93-14.52,9.56-15.24,17.96-.4,4.67-.46,9.37-.18,14.12,.04,.7-.29,1.05-.99,1.05-77.83,0-155.41,.02-232.74,.05-7.33,0-13.05-.39-17.15-1.17-4.05-.77-8.06-1.96-12.03-3.57-3.78-1.52-7.41-3.55-10.89-6.08-18.13-13.2-26.74-31.67-25.84-55.4" vector-effect="non-scaling-stroke"/>
      <path class="cls-2" d="M118.69,188.75l-30.75,217.01" vector-effect="non-scaling-stroke"/>
      <path class="cls-2" d="M122.61,162.54l-3.92,26.21" vector-effect="non-scaling-stroke"/>
      <path class="cls-2" d="M123.4,154.5l-.79,8.04" vector-effect="non-scaling-stroke"/>
      <path class="cls-2" d="M162.87,140.05l14.95-102.9c.08-.51,.38-.75,.89-.74,17.33,.51,34.77,1.15,52.34,1.91,3.03,.13,5.67-.13,7.92-.77,10.53-3,16.62-15.72,11.69-25.66-4.35-8.78-11.19-11.19-20.55-10.86-44.26,1.55-86.75,2.99-127.48,4.32-10,.32-16.71,8.4-14.04,18.43,1.01,3.82,3.51,6.72,7.49,8.69,1.89,.93,4.69,1.44,8.42,1.52,12.05,.27,23.92,.67,35.63,1.18h.02c.11,.02,.19,.12,.18,.23l-16.93,119.1" vector-effect="non-scaling-stroke"/>
      <path class="cls-2" d="M162.87,140.05c-1.34-.26-2.73-.52-3.86,.36-.96,.75-1.94,1.42-2.94,2.03-1.3,.79-2.73,.88-4.29,.27-2.09-.81-4.23-1.45-6.4-1.91-3.41-.71-6.44,0-9.1,2.16-1.84,1.48-3.52,3.11-5.04,4.89-2.2,2.56-4.56,5.19-7.07,7.88-.21,.22-.41,.22-.6,0-.18-.2-.24-.61-.17-1.22" vector-effect="non-scaling-stroke"/>
      <path class="cls-2" d="M162.15,146.21l.02-.51c0-.17-.03-.34-.12-.48-.25-.42-.8-.57-1.23-.32-3.51,2.03-7.71,3.34-11.57,1.77-1.61-.66-3.25-1.17-4.91-1.53-1.73-.37-3.17-.09-4.32,.84-.82,.67-1.65,1.42-2.49,2.26-4.55,4.55-9.52,9.32-14.92,14.3" vector-effect="non-scaling-stroke"/>
      <path class="cls-2" d="M153.66,207.26c-.12,.22-.18,.48-.19,.78,0,.09-.03,.17-.09,.24-.13,.14-.36,.15-.51,0-1.29-1.2-2.54-2.27-3.75-3.2-.16-.13-.27-.29-.33-.49-.04-.14-.11-.26-.21-.36-4.17-4.11-8.15-8.23-11.94-12.36-1.07-1.17-2.43-2-4.08-2.5-3.45-1.05-6.45-1.39-8.98-1.01-.88,.13-1.79,.2-2.74,.21-.31,0-.59,.08-.84,.25-1.13,.74-1.57,.71-1.31-.08" vector-effect="non-scaling-stroke"/>
      <path class="cls-2" d="M159.18,166.76c-13.92,6.85-17.09,16.57-9.5,29.16,.53,.89,1.24,1.64,2.13,2.27,.82,.57,1.69,1.17,2.62,1.8" vector-effect="non-scaling-stroke"/>
      <path class="cls-2" d="M128.92,388.46c-.31-.07-.45,.12-.44,.58,0,.33-.12,.6-.38,.81-.41,.32-.6,.73-.58,1.24,0,.33-.15,.51-.48,.55l-1.29,.14c-.31,.03-.57,.15-.8,.36-.81,.72-1.88,1-3.19,.85-.36-.04-.61,.11-.74,.45-.23,.59-.65,.82-1.26,.69-.93-.19-1.55,.16-1.84,1.07-.03,.07-.77,.16-2.23,.27-.19,.01-.36-.06-.51-.21-.26-.27-.2-.38,.17-.32,.17,.03,.32,0,.46-.07,.46-.23,.46-.47-.01-.71-.23-.11-.46-.14-.69-.09-.29,.07-.57,.02-.82-.15l-.81-.56c-.25-.17-.53-.24-.83-.21-.54,.07-1-.08-1.38-.43-.21-.2-.46-.29-.75-.28-1.13,.04-2.11,.24-2.93,.61-.32,.15-.41,.38-.28,.7,.27,.67,.31,1.35,.13,2.05-.08,.29-.34,.5-.64,.5-.79,.01-1.43,.36-1.92,1.04-.21,.3-.56,.48-.94,.47-1.41-.02-2.48,.46-3.23,1.44-.17,.21-.38,.32-.65,.31-.97,0-1.63,.47-1.96,1.41-.07,.21-.11,.2-.12-.01,0-.04-.01-.07-.04-.09-.05-.03-.1-.02-.14,.02-.31,.32-.62,.64-.94,.97-.21,.21-.46,.31-.76,.28-.19-.01-.28-.09-.27-.23,.05-.53-.15-.66-.61-.39-.19,.12-.39,.23-.59,.32-.54,.25-.78,.07-.71-.52,0-.09-.05-.17-.17-.22-.15-.06-.23,0-.23,.15v.73c0,.28-.09,.31-.27,.1-.15-.17-.2-.39-.16-.64,0-.03,.01-.07,.02-.1,.01-.04,0-.06-.05-.05-.05,0-.06,.02-.05,.07,.1,.59-.02,1.11-.35,1.54-.04,.05-.11,.08-.18,.07-.1-.01-.18-.11-.16-.21,.03-.17,.03-.34,.01-.51-.03-.31-.05-.27-.04,.12,0,.43-.2,.72-.62,.88-.31,.11-.55,.31-.73,.58-.35,.54-.6,1.08-.73,1.63-.09,.4-.34,.57-.75,.5l-1.1-.2" vector-effect="non-scaling-stroke"/>
      <path class="cls-2" d="M55.83,549.92c-.23,.21-.27,.46-.14,.75,.11,.26,.05,.47-.19,.62-.13,.09-.25,.05-.34-.1-.21-.33-.44-.34-.69-.05-.56,.65-1.27,.98-2.13,1-.74,.02-1.41,.47-1.71,1.15-.29,.65-.81,1.09-1.56,1.34-.37,.12-.74,.15-1.11,.09-.35-.05-.59,.11-.72,.49-.09,.28-.28,.47-.56,.58l-3.03,1.19c-.21,.08-.37,.21-.5,.39-.75,1.08-1.71,1.95-2.9,2.6-.25,.14-.39,.36-.41,.65-.07,.99-.59,1.5-1.57,1.51-.46,0-.79,.22-.99,.63-.43,.88-1.01,1.61-1.72,2.2-.72,.59-1.76,.89-3.11,.89h-10.33c-.24,0-.42,.1-.55,.31-.07,.11-.17,.18-.32,.19-.17,.02-.27-.05-.3-.22-.06-.33-.38-.41-.97-.25" vector-effect="non-scaling-stroke"/>
      <path class="cls-2" d="M118.79,517.68c-2.79,1.09-4.73,3.03-5.84,5.81-.07,.16-.05,.35,.05,.5,.13,.21,.31,.29,.52,.25,.14-.03,.25-.11,.31-.23,1.19-2.28,2.15-2.86,2.87-1.73" vector-effect="non-scaling-stroke"/>
      <path class="cls-2" d="M120.15,513.16c.02,1.35-.43,2.85-1.36,4.52" vector-effect="non-scaling-stroke"/>
      <path class="cls-2" d="M120.85,508.48c-.57,.27-1.06-.16-1.47-1.27-.12-.33-.32-.63-.59-.87-.93-.84-1.78-1.67-2.55-2.49-1.34-1.43-3.22-1.8-4.44,.08-.39,.61-.29,1.4,.24,1.88l8.11,7.35" vector-effect="non-scaling-stroke"/>
      <path class="cls-2" d="M258.09,460.64c-.55,.49-1.16,.75-1.83,.77-.29,.01-.52-.09-.7-.31-.13-.17-.31-.22-.54-.17-.2,.05-.36,.15-.49,.31-.42,.55-.95,.96-1.59,1.23-1.91,.84-4.18,3.58-5.56,5.13-1.5,1.68-3.35,3.04-4.93,4.74-.14,.15-.28,.15-.43,.01-.07-.07-.11-.15-.14-.25-.03-.17-.13-.21-.28-.13-.32,.18-.61,.41-.86,.7-.13,.15-.33,.22-.53,.18-.3-.05-.47-.18-.51-.38-.08-.39-.31-.54-.7-.45l-1.16,.28c-.25,.06-.44,.27-.48,.53-.14,.99-.65,1.75-1.54,2.28-.2,.12-.41,.13-.62,.03-.35-.17-.6-.07-.74,.3-.25,.69-.57,.72-.95,.1-.18-.29-.23-.59-.15-.91,.02-.07,.03-.07,.04,0,.03,.17,.02,.35-.02,.53-.03,.17-.14,.24-.31,.21-.03,0-.06-.02-.08-.05-.08-.13-.13-.11-.16,.04-.15,1.05-.74,1.43-1.75,1.16-.09-.03-.14-.08-.17-.16-.05-.15-.09-.15-.13,.01-.08,.36-.23,.7-.45,1.03-.14,.22-.34,.33-.6,.33h-13.24c-.43,0-.67,.21-.74,.63l-.83,4.81c-.03,.15-.1,.29-.2,.39-.89,.91-1.97,1.27-3.25,1.08-1.41-.22-2.61,.44-3.96,.4-7.07-.21-14.33-.14-21.76,.21-.35,.01-.55,.19-.59,.54-.03,.25-.16,.44-.39,.57-1.23,.67-2.25,1.49-3.06,2.48-.21,.25-.46,.45-.76,.59-1.73,.8-2.11,2.39-3.2,3.7-.61,.73-.99,1.3-1.14,1.71-.64,1.67-.85,3.31-.62,4.9,.05,.36-.1,.56-.46,.59-1.43,.13-2.09,.85-1.98,2.17,0,.17-.04,.33-.14,.47-.25,.33-.51,.38-.78,.15-.28-.24-.51-.19-.68,.14-.09,.17-.11,.35-.07,.54s0,.37-.11,.54c-.23,.32-.52,.57-.87,.75-.24,.12-.35,.42-.25,.67,.05,.13,.15,.19,.28,.16h.02s.04,.03,.04,.06c-.4,1.11-.98,1.9-1.75,2.38-.46,.28-.49,.6-.1,.96,.09,.09,.15,.19,.19,.3,.1,.3,0,.53-.26,.68-.76,.44-1.55,.7-2.37,.77-.31,.03-.59,.14-.83,.34l-1.11,.91c-.29,.23-.59,.27-.91,.1-.75-.39-1.54-.47-2.37-.24-.35,.1-.63,.3-.85,.59-.31,.41-.71,.65-1.21,.7-.29,.03-.52,.17-.69,.42-.29,.41-.67,.5-1.13,.27-.23-.12-.44-.08-.61,.13l-1.29,1.58c-.21,.25-.47,.39-.79,.41-.13,.01-.25,.05-.36,.1-.21,.09-.21,.14,.02,.13,.23,0,.29,.1,.18,.29-.15,.26-.32,.28-.51,.06-.21-.23-.45-.28-.74-.14-.3,.15-.46,.39-.47,.73l-.12,2.93c0,.29-.14,.35-.38,.19l-2.24-1.53c-.28-.19-.45-.12-.51,.21-.03,.15-.1,.26-.22,.32-.22,.11-.39,.05-.51-.16-.31-.55-.76-.77-1.35-.65-.36,.07-.61-.07-.74-.4-.09-.24-.14-.56-.15-.97" vector-effect="non-scaling-stroke"/>
      <path class="cls-2" d="M235.27,598.79c-.4-1.07-.53-2.25-.4-3.54,.03-.32-.05-.61-.25-.86-.73-.94-.34-1.83-.49-2.89-.08-.52-.19-.53-.32-.02-.12,.43-.15,.86-.1,1.28,.06,.53-.07,1.01-.4,1.43-.41,.51-.54,1.09-.39,1.73,.11,.46-.06,.77-.5,.93-.59,.23-1.2,.31-1.81,.26-.27-.03-.42-.17-.46-.44-.03-.17-.03-.34,0-.51,0-.06,0-.13-.03-.19-.07-.14-.25-.2-.39-.12l-.35,.19c-.17,.09-.19,.21-.08,.36,.11,.15,.26,.24,.45,.26,.41,.04,.43,.16,.07,.36-.41,.23-.87,.44-1.38,.61-.35,.11-.55-.01-.6-.37-.07-.43-.32-.66-.75-.7-.43-.03-.64-.27-.63-.72,0-.12-.05-.21-.17-.28-.29-.17-.43-.09-.4,.24,.15,1.81,.02,3.65-.4,5.53-.06,.25-.19,.48-.39,.65-.5,.45-.68,1.01-.53,1.7,.66,3.07,0,5.51-1.98,7.32-2.88,2.65-5.51,5.34-7.89,8.07-.14,.17-.34,.27-.56,.28-.27,.02-.49,.13-.64,.34-.22,.31-.49,.36-.81,.14-.23-.16-.48-.25-.75-.27" vector-effect="non-scaling-stroke"/>
      <path class="cls-2" d="M573.25,557.14c-.45,.27-.53,.75-.24,1.43,.14,.31,.14,.63,.01,.96-.49,1.19-.57,2.4-.26,3.63,1.13,4.46,3.62,9.14,1.27,13.57-.68,1.29-1.89,2.82-3.62,4.57-3.42,3.46-6.99,6.93-10.72,10.41" vector-effect="non-scaling-stroke"/>
      <path class="cls-2" d="M691.48,501.71l-.58,.45c-.25,.2-.22,.29,.1,.27,.25-.01,.36,.08,.33,.29-.05,.28-.19,.53-.4,.72-.15,.13-.26,.1-.33-.08-.06-.15-.1-.15-.13,.01l-.33,1.89c0,.07-.06,.14-.12,.17-.11,.05-.23,0-.28-.11-.05-.09-.09-.19-.12-.29-.17-.62-.25-.61-.24,.03,0,.1-.01,.2-.04,.29-.03,.12-.11,.19-.24,.21-.28,.03-.42-.08-.42-.34,0-.37-.18-.49-.53-.36-.7,.27-1.32,.62-1.85,1.06-.23,.18-.48,.23-.75,.15-1.15-.33-2.09-.91-2.83-1.72-.27-.29-.56-.32-.87-.08-.07,.05-.14,.1-.21,.15-.22,.16-.43,.15-.64-.03-.65-.58-1.36-.72-2.13-.43-1.07,.4-2,.25-2.8-.46-.29-.25-.59-.26-.88-.01l-.94,.77c-.27,.23-.55,.23-.84,.02-.68-.51-1.38-.54-2.11-.1-.21,.13-.36,.32-.44,.56-.24,.75-.76,1.05-1.57,.91-2.21-.38-4.31-.15-6.32,.69-.28,.12-.44,.33-.48,.64-.09,.68-.42,1.2-.99,1.56-.85,.53-1.42,.8-1.72,.81-1.76,.03-3.5,0-5.22-.09" vector-effect="non-scaling-stroke"/>
      <path class="cls-2" d="M120.15,513.16l.7-4.68" vector-effect="non-scaling-stroke"/>
      <path class="cls-2" d="M116.7,522.28l2.09-4.6" vector-effect="non-scaling-stroke"/>
      <path class="cls-2" d="M614.52,641.73v18.47h0c0,.3,.24,.53,.53,.53h44.95c.29,0,.53-.24,.53-.53v-18.93h0c0-.3-.24-.53-.53-.53h-44.95c-.29,0-.53,.24-.53,.53" vector-effect="non-scaling-stroke"/>
      <path class="cls-2" d="M614.52,695.73v19.51c0,.27,.22,.49,.49,.49h45.02c.27,0,.49-.22,.49-.49v-19.02c0-.27-.22-.49-.49-.49h-45.02c-.27,0-.49,.22-.49,.49" vector-effect="non-scaling-stroke"/>
      <path class="cls-2" d="M60.6,450.67c-1.01-1.13-2.11-2.18-3.29-3.17-.61-.52-.65-.48-.1,.11,2.71,2.9,5.57,5.68,8.56,8.35,.07,.07,.14,.06,.21-.01h0c.07-.1,.07-.17-.02-.24-1.89-1.5-3.68-3.18-5.37-5.04" vector-effect="non-scaling-stroke"/>
      <path class="cls-2" d="M586.87,508.06h0c0,6.77,5.48,12.25,12.25,12.25h0c6.77,0,12.25-5.48,12.25-12.25h0c0-6.77-5.48-12.25-12.25-12.25h0c-6.77,0-12.25,5.48-12.25,12.25" vector-effect="non-scaling-stroke"/>
      <path class="cls-2" d="M272.34,664.42c.12-.12-.46-.92-1.3-1.79s-1.62-1.48-1.75-1.36c-.12,.12,.46,.92,1.3,1.79s1.62,1.48,1.75,1.36" vector-effect="non-scaling-stroke"/>
      <path class="cls-2" d="M273.66,665.54c-.46-.27-.54-.18-.23,.25,.49,.69,1.07,1.28,1.73,1.75,.5,.36,.59,.28,.28-.25-.43-.73-1.03-1.31-1.78-1.75" vector-effect="non-scaling-stroke"/>
      <path class="cls-2" d="M418.24,667.44l-19.26,19.4c-.1,.1-.1,.27,0,.37l.06,.06c.1,.1,.27,.1,.37,0l19.26-19.4h0c.1-.1,.1-.27,0-.37l-.06-.06h0c-.1-.1-.27-.1-.37,0" vector-effect="non-scaling-stroke"/>
      <path class="cls-2" d="M282.86,674.62c-.13-.13-.26-.13-.39,0l-.18,.18c-.07,.07-.07,.13,0,.19l2.92,2.93c.13,.13,.25,.13,.37,0l.18-.19c.07-.07,.07-.15,0-.23l-2.9-2.88" vector-effect="non-scaling-stroke"/>
      <path class="cls-2" d="M624.66,645.1c.4,.35,.48,.28,.25-.2-.41-.84-.98-1.47-1.71-1.89-.54-.31-.62-.21-.25,.28,.49,.66,1.06,1.26,1.71,1.81" vector-effect="non-scaling-stroke"/>
      <path class="cls-2" d="M631.19,651.44h0c-.1,.11,1.17,1.52,2.84,3.16h0c1.67,1.64,3.11,2.88,3.22,2.77,.1-.11-1.17-1.52-2.84-3.16s-3.11-2.88-3.22-2.77" vector-effect="non-scaling-stroke"/>
    </g>
    <path class="cls-1" d="M120.42,188.83c.25-.17,.53-.25,.84-.25,.95,0,1.86-.08,2.74-.21,2.53-.38,5.53-.04,8.98,1.01,1.65,.5,3.01,1.33,4.08,2.5,3.79,4.13,7.77,8.25,11.94,12.36,.1,.1,.17,.22,.21,.36,.06,.2,.17,.36,.33,.49,1.21,.93,2.46,2,3.75,3.2,.07,.06,.15,.09,.24,.1,.2,0,.36-.15,.36-.35,0-.3,.07-.56,.19-.78-1.86,11.75-3.57,23.53-5.14,35.32-.92,6.91-1.85,13.51-2.79,19.78-1.66,10.97-3.22,21.96-4.68,32.96-1.99,15.07-4.44,30.33-6.45,45.48-2.04,15.43-4.52,30.77-6.56,46.43-.07,.53,.09,.94,.46,1.23-.31-.07-.45,.12-.44,.58,0,.33-.12,.6-.38,.81-.41,.32-.6,.73-.58,1.24,0,.33-.15,.51-.48,.55l-1.29,.14c-.31,.03-.57,.15-.8,.36-.81,.72-1.88,1-3.19,.85-.36-.04-.61,.11-.74,.45-.23,.59-.65,.82-1.26,.69-.93-.19-1.55,.16-1.84,1.07-.03,.07-.77,.16-2.23,.27-.19,.01-.36-.06-.51-.21-.26-.27-.2-.38,.17-.32,.17,.03,.32,0,.46-.07,.46-.23,.46-.47-.01-.71-.23-.11-.46-.14-.69-.09-.29,.07-.57,.02-.82-.15l-.81-.56c-.25-.17-.53-.24-.83-.21-.54,.07-1-.08-1.38-.43-.21-.2-.46-.29-.75-.28-1.13,.04-2.11,.24-2.93,.61-.32,.15-.41,.38-.28,.7,.27,.67,.31,1.35,.13,2.05-.08,.29-.34,.5-.64,.5-.79,.01-1.43,.36-1.92,1.04-.21,.3-.56,.48-.94,.47-1.41-.02-2.48,.46-3.23,1.44-.17,.21-.38,.32-.65,.31-.97,0-1.63,.47-1.96,1.41-.07,.21-.11,.2-.12-.01,0-.04-.01-.07-.04-.09-.05-.03-.1-.02-.14,.02-.31,.32-.62,.64-.94,.97-.21,.21-.46,.31-.76,.28-.19-.01-.28-.09-.27-.23,.05-.53-.15-.66-.61-.39-.19,.12-.39,.23-.59,.32-.54,.25-.78,.07-.71-.52,0-.09-.05-.17-.17-.22-.15-.06-.23,0-.23,.15v.73c0,.28-.09,.31-.27,.1-.15-.17-.2-.39-.16-.64,0-.03,.01-.07,.02-.1,.01-.04,0-.06-.05-.05-.05,0-.06,.02-.05,.07,.1,.59-.02,1.11-.35,1.54-.04,.05-.11,.08-.18,.07-.1-.01-.18-.11-.16-.21,.03-.17,.03-.34,.01-.51-.03-.31-.05-.27-.04,.12,0,.43-.2,.72-.62,.88-.31,.11-.55,.31-.73,.58-.35,.54-.6,1.08-.73,1.63-.09,.4-.34,.57-.75,.5l-1.1-.2,30.75-217.01c-.26,.79,.18,.82,1.31,.08h0Z"/>
    <path class="cls-1" d="M207.6,459.35c.13,.31,.34,.53,.65,.68,.79,.37,1.77,.55,2.94,.54,8.55-.1,24.33-.08,47.32,.07-.55,.49-1.16,.75-1.83,.77-.29,.01-.52-.09-.7-.31-.13-.17-.31-.22-.54-.17-.2,.05-.36,.15-.49,.31-.42,.55-.95,.96-1.59,1.23-1.91,.84-4.18,3.58-5.56,5.13-1.5,1.68-3.35,3.04-4.93,4.74-.14,.15-.28,.15-.43,.01-.07-.07-.11-.15-.14-.25-.03-.17-.13-.21-.28-.13-.32,.18-.61,.41-.86,.7-.13,.15-.33,.22-.53,.18-.3-.05-.47-.18-.51-.38-.08-.39-.31-.54-.7-.45l-1.16,.28c-.25,.06-.44,.27-.48,.53-.14,.99-.65,1.75-1.54,2.28-.2,.12-.41,.13-.62,.03-.35-.17-.6-.07-.74,.3-.25,.69-.57,.72-.95,.1-.18-.29-.23-.59-.15-.91,.02-.07,.03-.07,.04,0,.03,.17,.02,.35-.02,.53-.03,.17-.14,.24-.31,.21-.03,0-.06-.02-.08-.05-.08-.13-.13-.11-.16,.04-.15,1.05-.74,1.43-1.75,1.16-.09-.03-.14-.08-.17-.16-.05-.15-.09-.15-.13,.01-.08,.36-.23,.7-.45,1.03-.14,.22-.34,.33-.6,.33h-13.24c-.43,0-.67,.21-.74,.63l-.83,4.81c-.03,.15-.1,.29-.2,.39-.89,.91-1.97,1.27-3.25,1.08-1.41-.22-2.61,.44-3.96,.4-7.07-.21-14.33-.14-21.76,.21-.35,.01-.55,.19-.59,.54-.03,.25-.16,.44-.39,.57-1.23,.67-2.25,1.49-3.06,2.48-.21,.25-.46,.45-.76,.59-1.73,.8-2.11,2.39-3.2,3.7-.61,.73-.99,1.3-1.14,1.71-.64,1.67-.85,3.31-.62,4.9,.05,.36-.1,.56-.46,.59-1.43,.13-2.09,.85-1.98,2.17,0,.17-.04,.33-.14,.47-.25,.33-.51,.38-.78,.15-.28-.24-.51-.19-.68,.14-.09,.17-.11,.35-.07,.54s0,.37-.11,.54c-.23,.32-.52,.57-.87,.75-.24,.12-.35,.42-.25,.67,.05,.13,.15,.19,.28,.16h.02s.04,.03,.04,.06c-.4,1.11-.98,1.9-1.75,2.38-.46,.28-.49,.6-.1,.96,.09,.09,.15,.19,.19,.3,.1,.3,0,.53-.26,.68-.76,.44-1.55,.7-2.37,.77-.31,.03-.59,.14-.83,.34l-1.11,.91c-.29,.23-.59,.27-.91,.1-.75-.39-1.54-.47-2.37-.24-.35,.1-.63,.3-.85,.59-.31,.41-.71,.65-1.21,.7-.29,.03-.52,.17-.69,.42-.29,.41-.67,.5-1.13,.27-.23-.12-.44-.08-.61,.13l-1.29,1.58c-.21,.25-.47,.39-.79,.41-.13,.01-.25,.05-.36,.1-.21,.09-.21,.14,.02,.13,.23,0,.29,.1,.18,.29-.15,.26-.32,.28-.51,.06-.21-.23-.45-.28-.74-.14-.3,.15-.46,.39-.47,.73l-.12,2.93c0,.29-.14,.35-.38,.19l-2.24-1.53c-.28-.19-.45-.12-.51,.21-.03,.15-.1,.26-.22,.32-.22,.11-.39,.05-.51-.16-.31-.55-.76-.77-1.35-.65-.36,.07-.61-.07-.74-.4-.09-.24-.14-.56-.15-.97,.17-2.91,.68-6.03,.66-8.72-.11-16.31-6.06-29.99-17.85-41.05-3.47-3.27-7.25-6.03-11.34-8.28-.04-.02-.08-.04-.13-.04-.21-.03-.41,.12-.44,.33-1.28,8.58-2.47,17.33-3.56,26.24-.27,2.18-.13,3.45,1.21,5.34,3.68,5.21,5.51,11.01,5.49,17.4-.57,.27-1.06-.16-1.47-1.27-.12-.33-.32-.63-.59-.87-.93-.84-1.78-1.67-2.55-2.49-1.34-1.43-3.22-1.8-4.44,.08-.39,.61-.29,1.4,.24,1.88l8.11,7.35c.02,1.35-.43,2.85-1.36,4.52-2.79,1.09-4.73,3.03-5.84,5.81-.07,.16-.05,.35,.05,.5,.13,.21,.31,.29,.52,.25,.14-.03,.25-.11,.31-.23,1.19-2.28,2.15-2.86,2.87-1.73-1.37,1.95-2.24,4.13-3.83,5.69-21.72,21.31-57.01,.83-48.14-28.76,1.67-5.57,5.22-10.45,10.67-14.65,.93-.72,1.47-1.65,1.63-2.8,1.26-9.33,2.57-18.35,3.92-27.08,.01-.09,0-.17-.01-.26-.09-.35-.44-.57-.79-.48-14.85,3.54-26.41,11.62-34.66,24.25-6.92,10.59-9.77,23.38-8.36,36,1.55,13.96,7.78,25.87,18.7,35.73-.23,.21-.27,.46-.14,.75,.11,.26,.05,.47-.19,.62-.13,.09-.25,.05-.34-.1-.21-.33-.44-.34-.69-.05-.56,.65-1.27,.98-2.13,1-.74,.02-1.41,.47-1.71,1.15-.29,.65-.81,1.09-1.56,1.34-.37,.12-.74,.15-1.11,.09-.35-.05-.59,.11-.72,.49-.09,.28-.28,.47-.56,.58l-3.03,1.19c-.21,.08-.37,.21-.5,.39-.75,1.08-1.71,1.95-2.9,2.6-.25,.14-.39,.36-.41,.65-.07,.99-.59,1.5-1.57,1.51-.46,0-.79,.22-.99,.63-.43,.88-1.01,1.61-1.72,2.2-.72,.59-1.76,.89-3.11,.89h-10.33c-.24,0-.42,.1-.55,.31-.07,.11-.17,.18-.32,.19-.17,.02-.27-.05-.3-.22-.06-.33-.38-.41-.97-.25-9.42-11.87-15.59-24.84-18.5-38.91-4.57-22.08-.91-46.2,10.96-65.84,13.04-21.56,31.93-35.77,56.68-42.64,5.24-1.45,11.17-1.94,16.78-2.57,.33-.03,.53-.22,.58-.55l1.46-9.61,1.1,.2c.41,.07,.66-.1,.75-.5,.13-.55,.38-1.09,.73-1.63,.18-.27,.42-.47,.73-.58,.42-.16,.63-.45,.62-.88,0-.39,0-.43,.04-.12,.02,.17,.02,.34-.01,.51,0,.07,.02,.14,.07,.18,.08,.06,.2,.05,.27-.04,.33-.43,.45-.95,.35-1.54-.01-.05,0-.07,.05-.07s.06,.01,.05,.05c0,.03-.01,.07-.02,.1-.04,.25,.01,.47,.16,.64,.18,.21,.27,.18,.27-.1v-.73c0-.16,.08-.21,.23-.15,.12,.05,.18,.13,.17,.22-.07,.59,.17,.77,.71,.52,.2-.09,.4-.2,.59-.32,.46-.27,.66-.14,.61,.39-.01,.14,.08,.22,.27,.23,.3,.03,.55-.07,.76-.28,.32-.33,.63-.65,.94-.97,.04-.04,.09-.05,.14-.02,.03,.02,.04,.05,.04,.09,0,.21,.05,.22,.12,.01,.33-.94,.99-1.41,1.96-1.41,.27,0,.48-.1,.65-.31,.75-.98,1.82-1.46,3.23-1.44,.38,0,.73-.17,.94-.47,.49-.68,1.13-1.03,1.92-1.04,.3,0,.56-.21,.64-.5,.18-.7,.14-1.38-.13-2.05-.13-.32-.04-.55,.28-.7,.82-.37,1.8-.57,2.93-.61,.29-.01,.54,.08,.75,.28,.38,.35,.84,.5,1.38,.43,.3-.03,.58,.04,.83,.21l.81,.56c.25,.17,.53,.22,.82,.15,.23-.05,.46-.02,.69,.09,.47,.24,.47,.48,.01,.71-.14,.07-.29,.1-.46,.07-.37-.06-.43,.05-.17,.32,.15,.15,.32,.22,.51,.21,1.46-.11,2.2-.2,2.23-.27,.29-.91,.91-1.26,1.84-1.07,.61,.13,1.03-.1,1.26-.69,.13-.34,.38-.49,.74-.45,1.31,.15,2.38-.13,3.19-.85,.23-.21,.49-.33,.8-.36l1.29-.14c.33-.04,.49-.22,.48-.55-.02-.51,.17-.92,.58-1.24,.26-.21,.39-.48,.38-.81,0-.46,.13-.65,.44-.58,35.48,10.91,64.05,36.65,78.68,70.76h0Zm-150.29-11.85c-.61-.52-.65-.48-.1,.11,2.71,2.9,5.57,5.68,8.56,8.35,.07,.07,.14,.06,.21-.01h0c.07-.1,.07-.17-.02-.24-1.89-1.5-3.68-3.18-5.37-5.04-1.01-1.13-2.11-2.18-3.29-3.17h0Z"/>
    <path class="cls-1" d="M281.5,460.69c16.82,1.01,32.43,5.52,46.83,13.52,2.5,1.4,4.53,1.88,7.3,1.88,58.03,.01,115.99,.02,173.87,.03,.87,0,1.74-.07,2.59-.21,.25-.04,.46-.2,.56-.44,8.54-20.66,21.82-36.34,39.84-47.04,14.63-8.69,30.69-12.87,48.17-12.51,21.78,.43,40.89,7.44,57.29,21.04,19.85,16.47,31.03,38.09,33.53,64.87l-.58,.45c-.25,.2-.22,.29,.1,.27,.25-.01,.36,.08,.33,.29-.05,.28-.19,.53-.4,.72-.15,.13-.26,.1-.33-.08-.06-.15-.1-.15-.13,.01l-.33,1.89c0,.07-.06,.14-.12,.17-.11,.05-.23,0-.28-.11-.05-.09-.09-.19-.12-.29-.17-.62-.25-.61-.24,.03,0,.1-.01,.2-.04,.29-.03,.12-.11,.19-.24,.21-.28,.03-.42-.08-.42-.34,0-.37-.18-.49-.53-.36-.7,.27-1.32,.62-1.85,1.06-.23,.18-.48,.23-.75,.15-1.15-.33-2.09-.91-2.83-1.72-.27-.29-.56-.32-.87-.08-.07,.05-.14,.1-.21,.15-.22,.16-.43,.15-.64-.03-.65-.58-1.36-.72-2.13-.43-1.07,.4-2,.25-2.8-.46-.29-.25-.59-.26-.88-.01l-.94,.77c-.27,.23-.55,.23-.84,.02-.68-.51-1.38-.54-2.11-.1-.21,.13-.36,.32-.44,.56-.24,.75-.76,1.05-1.57,.91-2.21-.38-4.31-.15-6.32,.69-.28,.12-.44,.33-.48,.64-.09,.68-.42,1.2-.99,1.56-.85,.53-1.42,.8-1.72,.81-1.76,.03-3.5,0-5.22-.09-.35-20.74-8.73-36.62-25.14-47.64-6.86-4.6-15.24-7.5-25.13-8.68-6.38-.77-13.06-.15-20.06,1.85-17.13,4.9-30.42,17.16-36.84,33.94-.02,.06-.04,.13-.04,.2,0,.31,.25,.56,.56,.56,9.13,.03,18.21,.05,27.25,.04,.78,0,1.36-.22,2.07-.49,.28-.11,.52-.26,.72-.46,14.16-14.55,37.61-11.61,46.91,6.66,9.17,18.01-3.13,39.67-23.07,41.36-6.38,.55-12.08-.69-17.1-3.71-1.75-1.05-3.87-2.66-6.38-4.81-1.01-.87-2.28-1.31-3.82-1.32-9.43-.04-18.36-.07-26.8-.1-.05,0-.11,0-.16,.03-.23,.09-.35,.35-.26,.59,5.25,13.04,13.92,22.99,26.01,29.84-.45,.27-.53,.75-.24,1.43,.14,.31,.14,.63,.01,.96-.49,1.19-.57,2.4-.26,3.63,1.13,4.46,3.62,9.13,1.27,13.56-.68,1.29-1.89,2.81-3.62,4.57-3.42,3.46-6.99,6.93-10.71,10.4-1.25-.85-2.67-1.64-4.25-2.39-7.62-3.62-14.71-9.14-20.96-15.16-1.53-1.48-2.92-2.99-4.18-4.53-1.32-1.61-2.65-3.23-3.98-4.86-4.8-5.84-8.59-12.18-11.36-19.01-.13-.31-.39-.55-.72-.65-.88-.26-1.78-.39-2.7-.39-91.58-.01-183.41-.02-275.51-.03-.35,0-.52,.17-.52,.52l-.06,53.57c-.4-1.07-.53-2.25-.4-3.54,.03-.32-.05-.61-.25-.86-.73-.94-.34-1.83-.49-2.89-.08-.52-.19-.53-.32-.02-.12,.43-.15,.86-.1,1.28,.06,.53-.07,1.01-.4,1.43-.41,.51-.54,1.09-.39,1.73,.11,.46-.06,.77-.5,.93-.59,.23-1.2,.31-1.81,.26-.27-.03-.42-.17-.46-.44-.03-.17-.03-.34,0-.51,0-.06,0-.13-.03-.19-.07-.14-.25-.2-.39-.12l-.35,.19c-.17,.09-.19,.21-.08,.36,.11,.15,.26,.24,.45,.26,.41,.04,.43,.16,.07,.36-.41,.23-.87,.44-1.38,.61-.35,.11-.55-.01-.6-.37-.07-.43-.32-.66-.75-.7-.43-.03-.64-.27-.63-.72,0-.12-.05-.21-.17-.28-.29-.17-.43-.09-.4,.24,.15,1.81,.02,3.65-.4,5.53-.06,.25-.19,.48-.39,.65-.5,.45-.68,1.01-.53,1.7,.66,3.06,0,5.5-1.98,7.32-2.88,2.65-5.51,5.33-7.89,8.07-.14,.17-.34,.27-.56,.28-.27,.02-.49,.13-.64,.34-.22,.31-.49,.36-.81,.14-.23-.16-.48-.25-.75-.27-.72-4.11-1.09-7.81-1.11-11.08-.07-10.51-.11-31.53-.11-63.08,0-.43-.21-.64-.63-.64l-32.56-.07c-.4,0-.76,.26-.9,.64-.61,1.65-1.35,3.2-2.23,4.68-2.46,4.1-4.85,8.03-7.17,11.78-1.61,2.6-3.73,5.17-6.37,7.72-.89,.87-1.48,1.91-2.35,2.79-25.57,25.97-62.42,35.07-96.9,22.98-16.66-5.84-30.5-15.62-41.53-29.35,.59-.16,.91-.08,.97,.25,.03,.17,.13,.24,.3,.22,.15-.01,.25-.08,.32-.19,.13-.21,.31-.31,.55-.31h10.32c1.35,0,2.39-.3,3.11-.89,.71-.59,1.29-1.32,1.72-2.2,.2-.41,.53-.62,.99-.63,.98-.01,1.5-.52,1.57-1.51,.02-.29,.16-.51,.41-.65,1.19-.65,2.15-1.52,2.9-2.6,.13-.18,.29-.31,.5-.39l3.03-1.19c.28-.11,.47-.3,.56-.58,.13-.38,.37-.54,.72-.49,.37,.06,.74,.03,1.11-.09,.75-.25,1.27-.69,1.56-1.34,.3-.68,.96-1.13,1.71-1.15,.86-.02,1.57-.35,2.13-1,.25-.29,.48-.28,.69,.05,.09,.15,.21,.19,.34,.1,.24-.15,.3-.36,.19-.62-.13-.29-.09-.54,.14-.75,12.88,10.85,27.76,15.12,44.65,12.79,12.42-1.71,23.3-8.11,32.33-17.04,3.52-3.48,7.41-9.19,8.92-13.24,1.85-4.95,4.39-9.89,5.02-15.15,0,.41,.06,.73,.15,.97,.13,.33,.38,.47,.74,.4,.59-.12,1.04,.1,1.35,.65,.12,.21,.29,.27,.51,.16,.12-.06,.19-.17,.22-.32,.06-.33,.23-.4,.51-.21l2.24,1.53c.24,.16,.37,.1,.38-.19l.12-2.93c0-.34,.17-.58,.47-.73,.29-.14,.53-.09,.74,.14,.19,.22,.36,.2,.51-.06,.11-.19,.05-.29-.18-.29s-.23-.04-.02-.13c.11-.05,.23-.09,.36-.1,.32-.02,.58-.16,.79-.41l1.29-1.58c.17-.21,.38-.25,.61-.13,.46,.23,.84,.14,1.13-.27,.17-.25,.4-.39,.69-.42,.5-.05,.9-.29,1.21-.7,.22-.29,.5-.49,.85-.59,.83-.23,1.62-.15,2.37,.24,.32,.17,.62,.13,.91-.1l1.11-.91c.24-.2,.52-.31,.83-.34,.82-.07,1.61-.33,2.37-.77,.27-.15,.36-.38,.26-.68-.04-.11-.1-.21-.19-.3-.39-.36-.36-.68,.1-.96,.77-.48,1.35-1.27,1.75-2.38v-.02s-.03-.04-.06-.04c-.13,.03-.23-.03-.28-.16-.1-.25,0-.54,.25-.67,.35-.18,.64-.43,.87-.75,.11-.17,.15-.35,.11-.54s-.02-.37,.07-.54c.17-.33,.4-.38,.68-.14,.27,.23,.53,.18,.78-.15,.1-.14,.15-.3,.14-.47-.11-1.32,.55-2.04,1.98-2.17,.36-.03,.51-.23,.46-.59-.23-1.59-.02-3.22,.62-4.9,.15-.41,.53-.98,1.14-1.71,1.09-1.31,1.47-2.9,3.2-3.7,.3-.14,.55-.34,.76-.59,.81-.99,1.83-1.81,3.06-2.48,.23-.13,.36-.32,.39-.57,.04-.35,.24-.53,.59-.54,7.43-.35,14.68-.42,21.75-.21,1.35,.04,2.55-.62,3.96-.4,1.28,.19,2.36-.17,3.25-1.08,.1-.1,.17-.24,.2-.39l.83-4.81c.07-.42,.31-.63,.74-.63h13.23c.26,0,.46-.11,.6-.33,.22-.33,.37-.67,.45-1.03,.04-.16,.08-.16,.13-.01,.03,.08,.08,.13,.17,.16,1.01,.27,1.6-.11,1.75-1.16,.03-.15,.08-.17,.16-.04,.02,.03,.05,.04,.08,.05,.17,.03,.28-.04,.31-.21,.04-.18,.05-.36,.02-.53,0-.07-.02-.07-.04,0-.08,.32-.03,.62,.15,.91,.38,.62,.7,.59,.95-.1,.14-.37,.39-.47,.74-.3,.21,.1,.42,.09,.62-.03,.89-.53,1.4-1.29,1.54-2.28,.04-.26,.23-.47,.48-.53l1.16-.28c.39-.09,.62,.06,.7,.45,.04,.2,.21,.33,.51,.38,.2,.04,.4-.03,.53-.18,.25-.29,.54-.52,.86-.7,.15-.08,.25-.04,.28,.13,.03,.1,.07,.18,.14,.25,.15,.14,.29,.14,.43-.01,1.58-1.7,3.43-3.06,4.93-4.74,1.38-1.55,3.65-4.29,5.56-5.13,.64-.27,1.17-.68,1.59-1.23,.13-.16,.29-.26,.49-.31,.23-.05,.41,0,.54,.17,.18,.22,.41,.32,.7,.31,.67-.02,1.28-.28,1.83-.77,12.07-.18,19.79-.17,23.17,.04h.01Zm305.38,47.37c0,6.77,5.48,12.25,12.25,12.25h0c6.77,0,12.25-5.48,12.25-12.25h0c0-6.77-5.48-12.25-12.25-12.25h0c-6.77,0-12.25,5.48-12.25,12.25h0Z"/>
    <path class="cls-1" d="M65.97,455.71c.09,.07,.09,.14,.02,.23h0c-.07,.08-.14,.09-.21,.02-2.99-2.67-5.85-5.45-8.56-8.35-.55-.59-.51-.63,.1-.11,1.18,.99,2.28,2.04,3.29,3.17,1.69,1.86,3.48,3.54,5.37,5.04h0Z"/>
    <circle class="cls-1" cx="599.12" cy="508.06" r="12.25"/>
    <path class="cls-1" d="M676.49,558.7c-14.89,22.52-38.71,37.63-65.55,41.09-17.53,2.26-34.62-.43-51.25-8.08,3.73-3.48,7.3-6.95,10.72-10.41,1.73-1.75,2.94-3.28,3.62-4.57,2.35-4.43-.14-9.11-1.27-13.57-.31-1.23-.23-2.44,.26-3.63,.13-.33,.13-.65-.01-.96-.29-.68-.21-1.16,.24-1.43,2.56,1.02,4.88,2.32,7.49,3.16,21,6.81,42.84,1.95,58.12-13.81,9.67-9.97,14.91-22.38,15.7-37.23,1.72,.09,3.46,.12,5.22,.09,.3,0,.87-.28,1.72-.81,.57-.36,.9-.88,.99-1.56,.04-.31,.2-.52,.48-.64,2.01-.84,4.11-1.07,6.32-.69,.81,.14,1.33-.16,1.57-.91,.08-.24,.23-.43,.44-.56,.73-.44,1.43-.41,2.11,.1,.29,.21,.57,.21,.84-.02l.94-.77c.29-.25,.59-.24,.88,.01,.8,.71,1.73,.86,2.8,.46,.77-.29,1.48-.15,2.13,.43,.21,.18,.42,.19,.64,.03,.07-.05,.14-.1,.21-.15,.31-.24,.6-.21,.87,.08,.74,.81,1.68,1.39,2.83,1.72,.27,.08,.52,.03,.75-.15,.53-.44,1.15-.79,1.85-1.06,.35-.13,.52-.01,.53,.36,0,.26,.14,.37,.42,.34,.13-.02,.21-.09,.24-.21,.03-.09,.04-.19,.04-.29,0-.64,.07-.65,.24-.03,.03,.1,.07,.2,.12,.29,.03,.07,.09,.11,.17,.12,.12,.01,.22-.07,.23-.18l.33-1.89c.03-.16,.07-.16,.13-.01,.07,.18,.18,.21,.33,.08,.21-.19,.35-.44,.4-.72,.03-.21-.08-.3-.33-.29-.32,.02-.35-.07-.1-.27l.58-.45c1.15,21.15-3.85,40.14-14.99,56.99h0Z"/>
    <path class="cls-1" d="M112.04,505.81c-.53-.48-.63-1.27-.24-1.88,1.22-1.88,3.1-1.51,4.44-.08,.77,.82,1.62,1.65,2.55,2.49,.27,.24,.47,.54,.59,.87,.41,1.11,.9,1.54,1.47,1.27l-.7,4.68-8.11-7.35h0Z"/>
    <path class="cls-1" d="M116.7,522.28c-.72-1.13-1.68-.55-2.87,1.73-.06,.12-.17,.2-.31,.23-.21,.04-.39-.04-.52-.25-.1-.15-.12-.34-.05-.5,1.11-2.78,3.05-4.72,5.84-5.81l-2.09,4.6h0Z"/>
    <path class="cls-1" d="M212.69,619.83c.32,.22,.59,.17,.81-.14,.15-.21,.37-.32,.64-.34,.22-.01,.42-.11,.56-.28,2.38-2.73,5.01-5.42,7.89-8.07,1.98-1.81,2.64-4.25,1.98-7.32-.15-.69,.03-1.25,.53-1.7,.2-.17,.33-.4,.39-.65,.42-1.88,.55-3.72,.4-5.53-.03-.33,.11-.41,.4-.24,.12,.07,.18,.16,.17,.28,0,.45,.2,.69,.63,.72,.43,.04,.68,.27,.75,.7,.05,.36,.25,.48,.6,.37,.51-.17,.97-.38,1.38-.61,.36-.2,.34-.32-.07-.36-.19-.02-.34-.11-.45-.26s-.09-.27,.08-.36l.35-.19c.06-.03,.12-.04,.19-.03,.16,.03,.26,.18,.23,.34-.03,.17-.03,.34,0,.51,.04,.27,.19,.41,.46,.44,.61,.05,1.22-.03,1.81-.26,.44-.16,.61-.47,.5-.93-.15-.64-.02-1.22,.39-1.73,.33-.42,.46-.9,.4-1.43-.05-.42-.02-.85,.1-1.28,.13-.51,.24-.5,.32,.02,.15,1.06-.24,1.95,.49,2.89,.2,.25,.28,.54,.25,.86-.13,1.29,0,2.47,.4,3.54-.9,23.73,7.71,42.2,25.84,55.4,3.48,2.53,7.11,4.56,10.89,6.08,3.97,1.61,7.98,2.8,12.03,3.57,4.1,.78,9.82,1.17,17.15,1.17,77.33-.03,154.91-.05,232.74-.05,.7,0,1.03-.35,.99-1.05-.28-4.75-.22-9.45,.18-14.12,.72-8.4,6.35-17.03,15.24-17.96,13.43-1.41,28.99-2.85,46.68-4.31,4.15-.34,7.3,1.24,9.47,4.73,1.18,1.9,1.77,3.83,1.78,5.8,0,26.98,.02,53.23,.03,78.74,0,2.37-.35,4.38-1.07,6.05-1.32,3.07-4.49,6.15-8.12,6.23-1.41,.03-2.72,0-3.93-.12-16.33-1.56-31.47-2.97-45.44-4.24-1.81-.16-3.55-.79-5.21-1.88-5.83-3.81-8.99-9.47-9.5-16.97-.33-4.9-.36-9.8-.09-14.7,.05-.91-.38-1.36-1.29-1.36-78.16-.09-155.45-.09-231.88,0-8.18,.01-14.74-.39-19.67-1.21-24.66-4.07-44.01-16.7-58.05-37.88-6-9.04-10.03-19.42-12.1-31.15,.27,.02,.52,.11,.75,.27h0Zm58.34,42.8c-.84-.87-1.62-1.48-1.75-1.36-.12,.12,.46,.92,1.3,1.79s1.62,1.48,1.75,1.36c.12-.12-.46-.92-1.3-1.79Zm2.4,3.16c.49,.69,1.07,1.28,1.73,1.75,.5,.36,.59,.28,.28-.25-.43-.73-1.03-1.31-1.78-1.75-.46-.27-.54-.18-.23,.25Zm125.54,21.05c-.1,.1-.1,.27,0,.37l.06,.06c.1,.1,.27,.1,.37,0l19.26-19.4h0c.1-.1,.1-.27,0-.37l-.06-.06h0c-.1-.1-.27-.1-.37,0l-19.26,19.4Zm-116.5-12.22l-.18,.18c-.07,.07-.07,.13,0,.19l2.92,2.93c.13,.13,.25,.13,.37,0l.18-.19c.07-.07,.07-.15,0-.23l-2.9-2.88c-.13-.13-.26-.13-.39,0Z"/>
    <path class="cls-1" d="M614.52,641.26h0c0-.3,.24-.53,.53-.53h44.95c.29,0,.53,.24,.53,.53v18.93h0c0,.3-.24,.53-.53,.53h-44.95c-.29,0-.53-.24-.53-.53v-18.93Zm10.39,3.64c-.41-.84-.98-1.47-1.71-1.89-.54-.31-.62-.21-.25,.28,.49,.66,1.06,1.26,1.71,1.81,.4,.35,.48,.28,.25-.2Zm6.28,6.54c-.1,.11,1.17,1.52,2.84,3.16h0c1.67,1.64,3.11,2.88,3.22,2.77,.1-.11-1.17-1.52-2.84-3.16s-3.11-2.88-3.22-2.77h0Z"/>
    <path class="cls-1" d="M622.95,643.29c-.37-.49-.29-.59,.25-.28,.73,.42,1.3,1.05,1.71,1.89,.23,.48,.15,.55-.25,.2-.65-.55-1.22-1.15-1.71-1.81Z"/>
    <ellipse class="cls-1" cx="634.22" cy="654.41" rx=".27" ry="4.24" transform="translate(-277.08 649.68) rotate(-45.6)"/>
    <ellipse class="cls-1" cx="270.82" cy="662.85" rx=".31" ry="2.19" transform="translate(-384.95 375.3) rotate(-44.1)"/>
    <path class="cls-1" d="M275.44,667.29c.31,.53,.22,.61-.28,.25-.66-.47-1.24-1.06-1.73-1.75-.31-.43-.23-.52,.23-.25,.75,.44,1.35,1.02,1.78,1.75Z"/>
    <rect class="cls-1" x="394.9" y="677.06" width="27.86" height=".6" rx=".26" ry=".26" transform="translate(-359.88 490.16) rotate(-45.2)"/>
    <path class="cls-1" d="M285.76,677.5c.07,.08,.07,.16,0,.23l-.18,.19c-.12,.13-.24,.13-.37,0l-2.92-2.93c-.07-.06-.07-.12,0-.19l.18-.18c.13-.13,.26-.13,.39,0l2.9,2.88Z"/>
    <rect class="cls-1" x="614.52" y="695.73" width="46" height="20" rx=".49" ry=".49"/>
  </g>
</svg>